# xmcd CD database file
#
# Track frame offsets:
#	150
#	22455
#	40354
#	55431
#	70799
#	81090
#	97183
#	119669
#	136872
#	160746
#	178301
#	198435
#
# Disc length: 2829 seconds
#
# Revision: 0
# Processed by: cddbd v1.5.1PL0 Copyright (c) Steve Scherf et al.
# Submitted via: CDex 1.51
#
DISCID=b50b0b0c
DTITLE=Jim Mills - I Want a Woman Who Can Mow
DYEAR=2005
DGENRE=Country
TTITLE0=I Want a Woman Who Can Mow
TTITLE1=Feel Like Dancin'
TTITLE2=Mountain of Trouble
TTITLE3=Diamond and the Rose
TTITLE4=Garbage Man
TTITLE5=Dog's Life
TTITLE6=Too Much
TTITLE7=Texas Bitch
TTITLE8=Whiskey
TTITLE9=Dance With Me
TTITLE10=Roots of my Raising
TTITLE11=Great Day to Whup Somebody's Ass
EXTD=YEAR: 2005
EXTT0=
EXTT1=
EXTT2=
EXTT3=
EXTT4=
EXTT5=
EXTT6=
EXTT7=
EXTT8=
EXTT9=
EXTT10=
EXTT11=
PLAYORDER=
